<?xml version="1.0" standalone="no"?>
<!DOCTYPE svg PUBLIC "-//W3C//DTD SVG 20010904//EN"
 "http://www.w3.org/TR/2001/REC-SVG-20010904/DTD/svg10.dtd">
<svg version="1.0" xmlns="http://www.w3.org/2000/svg"
 width="220.000000pt" height="220.000000pt" viewBox="0 0 220.000000 220.000000"
 preserveAspectRatio="xMidYMid meet">
<metadata>
Created by potrace 1.11, written by Peter Selinger 2001-2013
</metadata>
<g transform="translate(0.000000,220.000000) scale(0.100000,-0.100000)"
fill="#000000" stroke="none">
<path d="M965 1986 c-33 -12 -76 -31 -96 -42 -20 -10 -63 -33 -95 -50 -100
-54 -151 -106 -173 -177 -17 -57 -23 -64 -68 -90 -65 -38 -97 -86 -90 -132 8
-49 35 -102 73 -142 18 -19 45 -55 59 -79 28 -48 40 -54 48 -25 3 14 11 18 26
14 12 -3 29 1 39 8 41 33 64 40 110 33 46 -7 46 -7 17 -16 -16 -4 -43 -10 -58
-12 -34 -4 -34 -4 -42 -37 -6 -23 -3 -28 26 -38 17 -6 33 -11 35 -11 1 0 2 12
1 26 -2 33 20 44 25 12 2 -19 9 -23 38 -23 29 0 36 4 38 23 2 12 8 20 13 16 5
-3 7 -10 4 -15 -11 -17 25 -9 44 10 11 11 22 17 25 13 10 -9 7 18 -4 38 -7 12
-7 28 0 44 8 21 6 28 -13 41 -12 8 -39 18 -61 22 -30 5 -35 8 -22 15 10 6 61
7 118 3 58 -3 105 -2 112 4 13 11 113 18 122 8 4 -4 -1 -7 -12 -7 -33 0 -96
-27 -106 -44 -6 -11 -6 -22 2 -31 8 -10 10 -30 6 -60 l-7 -45 42 0 c25 0 50 7
60 16 17 16 19 15 28 -10 9 -21 17 -26 46 -26 31 0 35 3 35 25 0 14 5 25 11
25 6 0 9 -10 7 -23 -4 -22 -1 -24 39 -26 48 -1 62 14 43 48 -12 24 -70 51
-109 51 -20 0 -23 2 -11 10 23 15 93 12 118 -6 16 -11 34 -13 65 -9 l42 6 30
-78 c17 -43 32 -94 35 -113 l6 -35 16 54 c20 64 15 85 -18 77 -27 -7 -31 5 -9
28 8 8 15 26 15 40 0 14 4 27 9 31 6 3 26 37 45 75 31 60 36 80 36 139 0 64
-2 71 -31 99 -17 17 -45 36 -61 43 -21 8 -37 27 -53 63 -13 28 -38 65 -57 82
-31 29 -208 134 -226 134 -5 0 -36 11 -70 25 -76 31 -137 31 -217 1z m269 -81
c47 -46 76 -97 76 -135 0 -17 -6 -20 -45 -20 -25 0 -45 2 -45 5 0 2 7 20 17
39 21 44 7 83 -48 130 -22 18 -39 36 -39 40 0 13 37 -13 84 -59z m-67 9 c28
-18 46 -51 39 -71 -5 -13 -8 -13 -22 1 -30 30 -55 38 -105 31 -57 -8 -152 -65
-192 -116 -14 -18 -29 -30 -33 -26 -12 11 17 58 67 108 88 89 177 116 246 73z
m-145 -97 c-12 -13 -22 -33 -22 -44 0 -12 -7 -24 -16 -27 -18 -7 -74 -8 -74
-2 0 20 20 43 58 67 57 36 85 39 54 6z m148 -12 c14 -17 3 -42 -23 -49 -43
-11 -97 -7 -103 9 -18 45 93 80 126 40z"/>
<path d="M585 1170 c3 -5 8 -10 11 -10 2 0 4 5 4 10 0 6 -5 10 -11 10 -5 0 -7
-4 -4 -10z"/>
<path d="M1539 1033 c-12 -89 -16 -101 -46 -131 -18 -18 -33 -37 -33 -42 0 -6
-10 -10 -22 -10 -12 0 -29 -7 -39 -16 -16 -15 -18 -13 -30 24 -12 43 -6 40
-127 59 -24 4 -37 13 -44 32 -6 14 -10 30 -9 34 1 5 -7 6 -18 2 -11 -3 -22 -1
-26 5 -12 19 -73 12 -85 -10 -6 -11 -15 -18 -21 -14 -5 3 -17 0 -25 -7 -13
-11 -19 -8 -38 16 -26 32 -49 27 -40 -10 7 -29 -20 -49 -87 -64 -25 -6 -53
-13 -62 -17 -13 -5 -17 0 -17 21 0 14 -4 24 -9 21 -5 -3 -7 -33 -4 -66 5 -50
3 -60 -10 -60 -24 0 -106 79 -117 114 -8 25 -9 20 -5 -29 3 -33 13 -67 21 -76
9 -10 20 -49 25 -88 10 -80 19 -101 100 -224 33 -49 59 -92 59 -97 0 -9 76
-65 120 -88 33 -18 145 -21 162 -4 6 6 25 12 40 12 16 0 45 7 66 15 47 20 157
127 184 180 11 22 23 42 27 45 20 16 62 96 71 135 6 25 22 64 36 87 23 35 27
57 34 162 13 198 -8 257 -31 89z m-466 -193 c6 -23 -29 -48 -44 -33 -12 12 0
45 12 37 5 -3 9 0 9 5 0 19 17 12 23 -9z m-28 -50 c72 -5 139 -10 150 -13 11
-3 23 -6 27 -6 15 -2 -3 -28 -30 -43 -20 -12 -63 -18 -151 -22 l-123 -5 -39
41 c-31 33 -37 44 -27 55 8 10 20 12 37 8 14 -4 85 -11 156 -15z"/>
<path d="M1350 924 c0 -8 5 -12 10 -9 6 4 8 11 5 16 -9 14 -15 11 -15 -7z"/>
</g>
</svg>
